<?xml version="1.0" encoding="UTF-8" standalone="no"?>
<!-- Created with Inkscape (http://www.inkscape.org/) -->

<svg
   version="1.1"
   id="svg9"
   width="793.70135"
   height="1122.52"
   viewBox="0 0 793.70135 1122.52"
   sodipodi:docname="logo focus.svg"
   xml:space="preserve"
   inkscape:version="1.2.1 (9c6d41e410, 2022-07-14)"
   inkscape:export-filename="logo focus.png"
   inkscape:export-xdpi="96"
   inkscape:export-ydpi="96"
   xmlns:inkscape="http://www.inkscape.org/namespaces/inkscape"
   xmlns:sodipodi="http://sodipodi.sourceforge.net/DTD/sodipodi-0.dtd"
   xmlns="http://www.w3.org/2000/svg"
   xmlns:svg="http://www.w3.org/2000/svg"><defs
     id="defs13"><clipPath
       clipPathUnits="userSpaceOnUse"
       id="clipPath25"><path
         d="M 0,841.89 H 595.276 V 0 H 0 Z"
         id="path23" /></clipPath></defs><sodipodi:namedview
     id="namedview11"
     pagecolor="#ffffff"
     bordercolor="#999999"
     borderopacity="1"
     inkscape:showpageshadow="0"
     inkscape:pageopacity="0"
     inkscape:pagecheckerboard="0"
     inkscape:deskcolor="#d1d1d1"
     showgrid="false"
     showguides="true"
     inkscape:zoom="1.0003729"
     inkscape:cx="261.40251"
     inkscape:cy="351.86878"
     inkscape:window-width="1600"
     inkscape:window-height="847"
     inkscape:window-x="1358"
     inkscape:window-y="-8"
     inkscape:window-maximized="1"
     inkscape:current-layer="g17"><inkscape:page
       x="0"
       y="0"
       id="page15"
       width="793.70135"
       height="1122.52" /></sodipodi:namedview><g
     id="g17"
     inkscape:groupmode="layer"
     inkscape:label="Page 1"
     transform="matrix(1.3333333,0,0,-1.3333333,0,1122.52)"><text
       xml:space="preserve"
       style="font-weight:bold;font-size:144px;font-family:'Exo 2';-inkscape-font-specification:'Exo 2 Bold';fill:#000000;fill-opacity:1;stroke-width:0.75"
       x="175.23495"
       y="-635.30566"
       id="text987"
       transform="scale(1,-1)"><tspan
         sodipodi:role="line"
         id="tspan985"
         style="font-style:normal;font-variant:normal;font-weight:bold;font-stretch:normal;font-family:'Baloo Bhai';-inkscape-font-specification:'Baloo Bhai Bold';stroke-width:0.75"
         x="175.23495"
         y="-635.30566" /></text><text
       xml:space="preserve"
       style="font-style:normal;font-variant:normal;font-weight:bold;font-stretch:normal;font-size:22px;font-family:'Baloo Bhai';-inkscape-font-specification:'Baloo Bhai Bold';fill:#000000;fill-opacity:1;stroke-width:0.75"
       x="206.58434"
       y="-453.64008"
       id="text1041"
       transform="scale(1,-1)"><tspan
         sodipodi:role="line"
         id="tspan1039"
         style="font-size:22px;stroke-width:0.75"
         x="206.58434"
         y="-453.64008" /></text><g
       id="g3969"><path
         id="text37"
         style="font-variant:normal;font-weight:normal;font-stretch:normal;font-size:116.2px;font-family:'Baloo Bhai';-inkscape-font-specification:BalooBhai-Regular;writing-mode:lr-tb;fill:#000000;fill-opacity:1;fill-rule:nonzero;stroke:none"
         d="m 224.9502,566.74548 c -3.56346,0 -6.93276,-0.42667 -10.10889,-1.27881 -3.09866,-0.85213 -5.81028,-2.20721 -8.13427,-4.0664 -2.324,-1.78173 -4.18373,-4.1064 -5.57813,-6.97266 -1.31693,-2.78879 -1.97461,-6.15809 -1.97461,-10.10888 v -48.10694 c 0,-1.93666 0.23247,-3.52421 0.69727,-4.76367 0.54226,-1.162 1.27792,-2.09187 2.20752,-2.78906 0.92959,-0.6972 2.05367,-1.16214 3.3706,-1.39454 1.3944,-0.2324 2.94369,-0.34863 4.64795,-0.34863 1.78173,0 3.48551,0.11623 5.11231,0.34863 1.70426,0.2324 2.94311,0.46487 3.71777,0.69727 v 36.83496 h 13.36377 c 2.01413,0 3.60167,0.58117 4.76367,1.74317 1.23947,1.23946 1.85889,3.21543 1.85889,5.92675 0,1.54933 -0.23247,2.94413 -0.69727,4.1836 -0.38733,1.31693 -0.81254,2.40128 -1.27734,3.25341 h -19.05762 v 3.71778 c 0,2.78879 0.92987,4.72504 2.78906,5.80957 1.8592,1.162 4.45459,1.74316 7.78565,1.74316 2.0916,0 3.91161,-0.15449 5.46094,-0.46435 1.62679,-0.2324 3.17608,-0.54284 4.64795,-0.93018 0.77466,0.61974 1.47206,1.5496 2.09179,2.78907 0.6972,1.23946 1.0459,2.63426 1.0459,4.18359 0,3.64092 -1.35508,6.19659 -4.06641,7.66846 -2.71132,1.54933 -6.93398,2.3247 -12.6665,2.3247 z m 238.09278,-20.56787 c -3.79586,0 -7.28139,-0.42521 -10.45752,-1.27734 -3.09866,-0.85214 -5.77056,-2.05272 -8.01709,-3.60205 -2.24653,-1.54933 -3.99003,-3.48704 -5.22949,-5.81104 -1.23947,-2.32399 -1.85889,-4.91792 -1.85889,-7.78418 0,-5.26772 1.6258,-9.33589 4.8794,-12.20215 3.33105,-2.78879 8.36735,-4.84127 15.10693,-6.1582 l 3.48633,-0.69727 c 2.16906,-0.38733 3.71835,-0.89052 4.64795,-1.51025 0.9296,-0.61973 1.39306,-1.47162 1.39306,-2.55615 0,-1.162 -0.65767,-2.09187 -1.97461,-2.78907 -1.23945,-0.69719 -3.05948,-1.04589 -5.46093,-1.04589 -3.79587,0 -7.16663,0.46493 -10.11035,1.39453 -2.86627,1.00706 -5.42193,2.12968 -7.66846,3.36914 -1.08453,-0.85213 -2.01441,-1.93649 -2.78906,-3.25342 -0.77467,-1.23946 -1.16163,-2.78875 -1.16163,-4.64795 0,-2.01413 0.54145,-3.75763 1.62598,-5.22949 1.162,-1.47186 2.71129,-2.71071 4.64795,-3.71777 2.01413,-0.9296 4.4153,-1.627 7.2041,-2.0918 2.7888,-0.4648 5.81086,-0.69727 9.06446,-0.69727 8.59878,0 15.10637,1.66552 19.52197,4.99658 4.41558,3.33106 6.62256,7.94068 6.62256,13.82813 0,4.72546 -1.58755,8.55969 -4.76367,11.50342 -3.09867,3.02119 -8.36596,5.38411 -15.80274,7.08838 l -3.60352,0.81299 c -2.16905,0.46479 -3.64038,0.96945 -4.41503,1.51172 -0.77467,0.54226 -1.16163,1.23966 -1.16163,2.09179 0,1.23947 0.6974,2.12961 2.0918,2.67188 1.3944,0.61973 3.36891,0.93017 5.92529,0.93017 1.23947,0 2.59601,-0.11623 4.06788,-0.34863 1.54932,-0.2324 3.05889,-0.54284 4.53076,-0.93018 1.47186,-0.30986 2.8284,-0.69682 4.06787,-1.16162 1.23946,-0.38733 2.16933,-0.77429 2.78906,-1.16162 1.00707,0.85213 1.81923,1.89677 2.43897,3.13623 0.6972,1.31693 1.04589,2.86622 1.04589,4.64795 0,1.8592 -0.54144,3.44821 -1.62597,4.76514 -1.08453,1.3944 -2.55731,2.51701 -4.41651,3.36914 -1.85918,0.85213 -4.06617,1.47155 -6.62255,1.85889 -2.47894,0.46479 -5.1523,0.69726 -8.01856,0.69726 z m -188.70704,-0.11572 c -4.57052,0 -8.7152,-0.6974 -12.43359,-2.0918 -3.71839,-1.3944 -6.9332,-3.40862 -9.64453,-6.04248 -2.63386,-2.55639 -4.68781,-5.69323 -6.15967,-9.41162 -1.47186,-3.71839 -2.20752,-7.86307 -2.20752,-12.43359 0,-4.648 0.73566,-8.83093 2.20752,-12.54932 1.47186,-3.71839 3.52581,-6.89495 6.15967,-9.52881 2.71133,-2.55639 5.92614,-4.53236 9.64453,-5.92676 3.71839,-1.39439 7.86307,-2.09033 12.43359,-2.09033 4.57053,0 8.71521,0.65768 12.4336,1.97461 3.71839,1.31693 6.89349,3.25318 9.52734,5.80957 2.71133,2.55639 4.80353,5.69469 6.27539,9.41309 1.47187,3.79586 2.20752,8.09502 2.20752,12.89795 0,4.49305 -0.73565,8.59801 -2.20752,12.3164 -1.47186,3.7184 -3.56406,6.85669 -6.27539,9.41309 -2.63385,2.63386 -5.80895,4.64808 -9.52734,6.04248 -3.71839,1.47186 -7.86307,2.20752 -12.4336,2.20752 z m 68.78907,0 c -4.1832,0 -8.17191,-0.61942 -11.96778,-1.85889 -3.71838,-1.23946 -7.01117,-3.0992 -9.87744,-5.57812 -2.86625,-2.47893 -5.1512,-5.65549 -6.85547,-9.52881 -1.62678,-3.79586 -2.44043,-8.24952 -2.44043,-13.36231 0,-4.41559 0.77538,-8.44403 2.32471,-12.08496 1.54933,-3.64092 3.71804,-6.77776 6.50684,-9.41162 2.86625,-2.55639 6.27529,-4.57062 10.22607,-6.04248 3.9508,-1.3944 8.3662,-2.0918 13.24658,-2.0918 5.3452,0 9.52812,0.85189 12.54932,2.55616 3.0212,1.78172 4.53223,4.26088 4.53223,7.43701 0,1.78173 -0.38842,3.29276 -1.16309,4.53222 -0.77466,1.31693 -1.93553,2.51752 -3.48486,3.60205 -1.31693,-0.61973 -2.82796,-1.20089 -4.53223,-1.74316 -1.70426,-0.54227 -3.71848,-0.81299 -6.04248,-0.81299 -3.95078,0 -7.32009,1.20059 -10.10889,3.60205 -2.71132,2.40146 -4.06787,6.00323 -4.06787,10.80616 0,2.40146 0.38697,4.49366 1.16162,6.27539 0.77467,1.78173 1.78251,3.25304 3.02198,4.41504 1.31693,1.23946 2.82797,2.16933 4.53222,2.78906 1.78174,0.61973 3.64001,0.92871 5.57666,0.92871 2.16907,0 4.1833,-0.30898 6.04248,-0.92871 1.8592,-0.54227 3.44821,-1.12343 4.76514,-1.74317 0.9296,0.9296 1.74177,2.01396 2.43897,3.25342 0.6972,1.31693 1.04589,2.71173 1.04589,4.1836 0,3.17612 -1.50956,5.77151 -4.53076,7.78564 -3.02118,2.01413 -7.32183,3.02051 -12.89941,3.02051 z m 36.95215,-1.51025 c -1.78173,0 -3.52524,-0.11624 -5.22949,-0.34864 -1.6268,-0.2324 -2.82739,-0.46486 -3.60206,-0.69726 v -33.23292 c 0,-4.33812 0.6974,-8.05759 2.0918,-11.15625 1.3944,-3.02119 3.37036,-5.49888 5.92676,-7.43554 2.5564,-1.93666 5.57699,-3.37119 9.06299,-4.30078 3.56345,-0.9296 7.43742,-1.39307 11.6206,-1.39307 4.4156,0 8.48229,0.46347 12.20069,1.39307 3.79585,0.85213 7.04892,2.13069 9.76025,3.83496 3.2536,1.93666 4.88086,4.84249 4.88086,8.71582 v 35.32471 c 0,1.93666 -0.27072,3.48595 -0.81299,4.64794 -0.4648,1.23947 -1.16219,2.20759 -2.09179,2.90479 -0.9296,0.6972 -2.09193,1.16213 -3.48633,1.39453 -1.31693,0.2324 -2.82796,0.34864 -4.53223,0.34864 -1.78173,0 -3.52376,-0.11624 -5.22803,-0.34864 -1.62678,-0.2324 -2.82885,-0.46486 -3.60351,-0.69726 v -40.66993 c -0.61973,-0.30986 -1.50988,-0.62031 -2.67188,-0.93017 -1.08453,-0.30987 -2.51759,-0.46436 -4.29931,-0.46436 -2.94373,0 -5.19042,0.65768 -6.73975,1.97461 -1.54933,1.3944 -2.32324,3.68081 -2.32324,6.85693 v 24.98292 c 0,1.93666 -0.27219,3.48595 -0.81446,4.64794 -0.46478,1.23947 -1.16219,2.20759 -2.09179,2.90479 -0.9296,0.6972 -2.09047,1.16213 -3.48487,1.39453 -1.31692,0.2324 -2.82796,0.34864 -4.53222,0.34864 z M 274.33594,530.60779 c 3.2536,0 5.77101,-1.27857 7.55274,-3.83496 1.78173,-2.47893 2.67187,-6.04244 2.67187,-10.69043 0,-4.648 -0.89014,-8.24976 -2.67187,-10.80616 -1.70426,-2.55639 -4.18342,-3.83496 -7.43701,-3.83496 -3.2536,0 -5.81073,1.23885 -7.66993,3.71778 -1.78172,2.55639 -2.67187,6.19788 -2.67187,10.92334 0,4.64799 0.89015,8.2115 2.67187,10.69043 1.78173,2.55639 4.30061,3.83496 7.5542,3.83496 z" /><g
         id="g3803"><g
           id="g3705"
           transform="matrix(0.56456689,0,0,0.56653797,-279.57841,140.14993)"><path
             id="rect3382"
             style="fill:#d90000;fill-opacity:1;stroke-width:0.75"
             d="m 646.89274,733.52678 60.06502,33.13678 57.51569,-37.98883 -0.7952,-24.51059 -58.14028,35.52496 -58.64524,-33.23093 z"
             sodipodi:nodetypes="ccccccc" /><path
             id="rect3382-2"
             style="fill:#1e91c4;fill-opacity:1;stroke-width:0.75"
             d="m 734.77985,781.8446 57.08897,-33.78908 0.28992,-65.59665 -24.05283,-13.45975 1.02892,63.75775 -57.05787,36.53199 z"
             sodipodi:nodetypes="ccccccc" /><path
             id="rect3382-2-1"
             style="fill:#002255;stroke-width:0.75"
             d="m 820.41302,731.64234 -0.4221,-67.8276 -59.23517,-31.9879 -21.47414,13.67515 57.20913,32.45135 -0.0501,68.02209 z"
             sodipodi:nodetypes="ccccccc" /><path
             id="rect3382-3"
             style="fill:#d90000;fill-opacity:1;stroke-width:0.75"
             d="m 820.04656,632.55141 -60.812,-32.17266 -56.05022,35.67543 0.3257,25.44633 57.14431,-34.61517 59.39222,32.23843 z"
             sodipodi:nodetypes="ccccccc" /><path
             id="rect3382-2-11"
             style="fill:#1e91c4;fill-opacity:1;stroke-width:0.75"
             d="m 731.05199,585.82927 -54.65357,31.18427 0.0421,68.01182 23.11138,13.51164 -0.17046,-66.45632 54.55198,-34.56533 z"
             sodipodi:nodetypes="ccccccc" /><path
             id="rect3382-2-1-2"
             style="fill:#002255;stroke-width:0.75"
             d="m 646.91278,634.28219 0.0498,66.16409 59.46993,33.39152 21.47414,-13.67515 -55.56587,-31.28167 -0.17388,-69.22258 z"
             sodipodi:nodetypes="ccccccc" /></g></g></g></g></svg>
